<svg xmlns="http://www.w3.org/2000/svg" viewBox="0 0 374.9997 346.5088">
  <title>cardanologowhite</title>
  <g id="Layer_2" data-name="Layer 2">
    <g id="Layer_1-2" data-name="Layer 1">
      <g>
        <path d="M102.7639,171.949a25.2954,25.2954,0,0,0,23.778,26.65c.49.026.975.042,1.454.042a25.2554,25.2554,0,1,0-25.232-26.692Z" style="fill: #fff"/>
        <path d="M8.6229,165.498a8.1638,8.1638,0,1,0,7.689,8.615A8.1557,8.1557,0,0,0,8.6229,165.498Z" style="fill: #fff"/>
        <path d="M101.161,25.427a8.1633,8.1633,0,1,0-10.9631-3.618A8.1665,8.1665,0,0,0,101.161,25.427Z" style="fill: #fff"/>
        <path d="M126.7789,70.101a12.6148,12.6148,0,1,0-16.94-5.5891A12.61,12.61,0,0,0,126.7789,70.101Z" style="fill: #fff"/>
        <path d="M40.5779,100.817a10.3885,10.3885,0,1,0-2.991-14.3811A10.3881,10.3881,0,0,0,40.5779,100.817Z" style="fill: #fff"/>
        <path d="M55.9269,160.949A12.6174,12.6174,0,1,0,67.81,174.261,12.62,12.62,0,0,0,55.9269,160.949Z" style="fill: #fff"/>
        <path d="M41.9559,245.719a10.3893,10.3893,0,1,0,13.953,4.597A10.3875,10.3875,0,0,0,41.9559,245.719Z" style="fill: #fff"/>
        <path d="M90.9639,134.889a14.84,14.84,0,1,0-4.27-20.552A14.8333,14.8333,0,0,0,90.9639,134.889Z" style="fill: #fff"/>
        <path d="M246.468,69.098a12.618,12.618,0,1,0-3.6291-17.469A12.6149,12.6149,0,0,0,246.468,69.098Z" style="fill: #fff"/>
        <path d="M272.3509,24.57a8.1632,8.1632,0,1,0-2.353-11.306A8.1647,8.1647,0,0,0,272.3509,24.57Z" style="fill: #fff"/>
        <path d="M248.4529,147.911a25.2524,25.2524,0,0,0-2.8719,50.423c.484.026.973.039,1.454.039a25.2515,25.2515,0,0,0,1.4179-50.462Z" style="fill: #fff"/>
        <path d="M135.0759,133.14A25.2525,25.2525,0,1,0,157.608,96.517a25.255,25.255,0,0,0-22.5321,36.623Z" style="fill: #fff"/>
        <path d="M333.0379,100.792a10.3906,10.3906,0,1,0-13.954-4.605A10.3957,10.3957,0,0,0,333.0379,100.792Z" style="fill: #fff"/>
        <path d="M268.9919,108.835a14.8419,14.8419,0,1,0,19.935,6.5719A14.8387,14.8387,0,0,0,268.9919,108.835Z" style="fill: #fff"/>
        <path d="M186.55,20.764a10.39,10.39,0,1,0-9.786-10.962A10.3925,10.3925,0,0,0,186.55,20.764Z" style="fill: #fff"/>
        <path d="M186.4319,86.135A14.8458,14.8458,0,1,0,172.455,70.47,14.8487,14.8487,0,0,0,186.4319,86.135Z" style="fill: #fff"/>
        <path d="M106.004,237.675a14.8411,14.8411,0,1,0-19.93-6.579A14.8475,14.8475,0,0,0,106.004,237.675Z" style="fill: #fff"/>
        <path d="M196.028,107.793a25.237,25.237,0,1,0,21.138-11.409A25.2816,25.2816,0,0,0,196.028,107.793Z" style="fill: #fff"/>
        <path d="M239.925,213.37a25.2575,25.2575,0,1,0-11.1859,33.913A25.1409,25.1409,0,0,0,239.925,213.37Z" style="fill: #fff"/>
        <path d="M284.0309,211.615a14.8434,14.8434,0,1,0,4.2741,20.551A14.8526,14.8526,0,0,0,284.0309,211.615Z" style="fill: #fff"/>
        <path d="M332.38,173.681a12.6178,12.6178,0,1,0-13.312,11.88A12.62,12.62,0,0,0,332.38,173.681Z" style="fill: #fff"/>
        <path d="M367.3039,164.707a8.1647,8.1647,0,1,0,7.682,8.615A8.1717,8.1717,0,0,0,367.3039,164.707Z" style="fill: #fff"/>
        <path d="M334.4179,245.684a10.3908,10.3908,0,1,0,2.994,14.386A10.3851,10.3851,0,0,0,334.4179,245.684Z" style="fill: #fff"/>
        <path d="M102.648,321.938a8.1632,8.1632,0,1,0,2.345,11.3021A8.1617,8.1617,0,0,0,102.648,321.938Z" style="fill: #fff"/>
        <path d="M273.8329,321.082a8.1615,8.1615,0,1,0,10.9681,3.615A8.16,8.16,0,0,0,273.8329,321.082Z" style="fill: #fff"/>
        <path d="M178.9719,238.709a25.2484,25.2484,0,1,0-21.138,11.409A25.0815,25.0815,0,0,0,178.9719,238.709Z" style="fill: #fff"/>
        <path d="M128.5259,277.41a12.6164,12.6164,0,1,0,3.6331,17.468A12.6166,12.6166,0,0,0,128.5259,277.41Z" style="fill: #fff"/>
        <path d="M187.38,325.74a10.3928,10.3928,0,1,0,9.7831,10.964A10.3919,10.3919,0,0,0,187.38,325.74Z" style="fill: #fff"/>
        <path d="M187.4949,260.371a14.8435,14.8435,0,1,0,13.9781,15.665A14.8441,14.8441,0,0,0,187.4949,260.371Z" style="fill: #fff"/>
        <path d="M248.212,276.4a12.617,12.617,0,1,0,16.949,5.5909A12.6168,12.6168,0,0,0,248.212,276.4Z" style="fill: #fff"/>
      </g>
    </g>
  </g>
</svg>
